<?xml version="1.0" encoding="UTF-8"?>
<svg id="Camada_1" data-name="Camada 1" xmlns="http://www.w3.org/2000/svg" width="21.5cm" height="8cm" viewBox="0 0 609.45 226.77">
  <defs>
    <style>
      .cls-1 {
        fill: #fff;
      }
    </style>
  </defs>
  <polygon class="cls-1" points="152.13 83.39 152.13 153.73 81.78 153.73 81.78 213.73 212.13 213.73 212.13 83.39 152.13 83.39"/>
  <rect class="cls-1" x="81.78" y="13.04" width="60" height="60"/>
  <rect class="cls-1" x="11.44" y="83.39" width="60" height="60"/>
  <rect class="cls-1" x="81.78" y="83.39" width="60" height="60"/>
  <path class="cls-1" d="M316.49,85.21c-3.22-1.83-6.96-2.75-11.23-2.75-5.13,0-9.41,1.37-12.83,4.1-2.57,2.05-4.67,4.85-6.3,8.39l-.13-11.59h-13.87v61.99h14.49v-36.05c0-3.14.58-5.78,1.74-7.92,1.16-2.13,2.74-3.75,4.74-4.86,2-1.1,4.28-1.66,6.82-1.66,3.85,0,6.86,1.18,9.01,3.54,2.15,2.36,3.23,5.67,3.23,9.94v37h14.49v-39.25c0-5.05-.89-9.34-2.67-12.86-1.78-3.52-4.28-6.2-7.5-8.03Z"/>
  <path class="cls-1" d="M383.2,90.23c-2.64-2.6-5.69-4.55-9.15-5.84-3.46-1.29-7.16-1.94-11.09-1.94-5.88,0-11.02,1.36-15.41,4.07-4.4,2.71-7.8,6.5-10.22,11.34-2.41,4.85-3.62,10.44-3.62,16.76s1.22,12.05,3.65,16.85c2.43,4.79,5.9,8.52,10.42,11.17,4.51,2.66,9.87,3.99,16.09,3.99,4.64,0,8.82-.73,12.52-2.19s6.78-3.5,9.24-6.12c2.45-2.62,4.15-5.67,5.08-9.15l-13.36-2.13c-.64,1.76-1.58,3.25-2.84,4.46-1.25,1.22-2.76,2.14-4.52,2.78-1.76.64-3.73.95-5.9.95-3.22,0-6.04-.69-8.45-2.08-2.41-1.38-4.28-3.43-5.59-6.12-1.18-2.43-1.82-5.33-1.94-8.7h43.55v-4.38c0-5.31-.75-9.95-2.25-13.9-1.5-3.95-3.57-7.22-6.2-9.83ZM354.98,96.05c2.25-1.46,4.94-2.19,8.09-2.19s5.85.72,8,2.16c2.15,1.44,3.79,3.47,4.91,6.09.81,1.88,1.31,4,1.54,6.35h-29.35c.21-2.33.76-4.47,1.67-6.43,1.18-2.53,2.89-4.52,5.14-5.98Z"/>
  <polygon class="cls-1" points="517.73 83.35 500.61 83.35 477.87 108.4 476.97 108.4 476.97 61.68 462.48 61.68 462.48 145.35 476.97 145.35 476.97 124.55 482.41 118.79 501.73 145.35 519.19 145.35 493.4 110.15 517.73 83.35"/>
  <path class="cls-1" d="M567.25,90.23c-2.64-2.6-5.69-4.55-9.15-5.84-3.46-1.29-7.16-1.94-11.09-1.94-5.88,0-11.02,1.36-15.41,4.07-4.4,2.71-7.8,6.5-10.22,11.34-2.41,4.85-3.62,10.44-3.62,16.76s1.22,12.05,3.65,16.85c2.43,4.79,5.9,8.52,10.42,11.17,4.51,2.66,9.87,3.99,16.09,3.99,4.64,0,8.82-.73,12.52-2.19s6.78-3.5,9.24-6.12c2.45-2.62,4.15-5.67,5.08-9.15l-13.36-2.13c-.64,1.76-1.58,3.25-2.84,4.46-1.25,1.22-2.76,2.14-4.52,2.78-1.76.64-3.73.95-5.9.95-3.22,0-6.04-.69-8.45-2.08-2.41-1.38-4.28-3.43-5.59-6.12-1.18-2.43-1.82-5.33-1.94-8.7h43.55v-4.38c0-5.31-.75-9.95-2.25-13.9-1.5-3.95-3.57-7.22-6.2-9.83ZM539.03,96.05c2.25-1.46,4.94-2.19,8.09-2.19s5.85.72,8,2.16c2.15,1.44,3.79,3.47,4.91,6.09.81,1.88,1.31,4,1.54,6.35h-29.35c.21-2.33.76-4.47,1.67-6.43,1.18-2.53,2.89-4.52,5.14-5.98Z"/>
  <rect class="cls-1" x="583.52" y="61.68" width="14.49" height="83.67"/>
  <path class="cls-1" d="M440.29,125.9c-.29.83-.63,1.63-1.05,2.38-.77,1.39-1.71,2.55-2.84,3.51-1.12.95-2.42,1.69-3.9,2.22-1.48.52-3.12.79-4.91.79-3.33,0-6.11-.88-8.34-2.64-2.23-1.76-3.91-4.16-5.05-7.22-1.14-3.05-1.71-6.5-1.71-10.36s.57-7.42,1.71-10.47c1.14-3.05,2.83-5.46,5.05-7.22,2.23-1.76,5.01-2.64,8.34-2.64,1.8,0,3.43.26,4.89.79,1.46.52,2.74,1.25,3.85,2.19,1.1.94,2.04,2.06,2.81,3.37.37.63.69,1.3.96,2.01h14.41c-.61-3.03-1.66-5.78-3.19-8.24-1.55-2.51-3.51-4.65-5.87-6.43-2.36-1.78-5.05-3.13-8.09-4.07-3.03-.94-6.33-1.4-9.88-1.4-6.03,0-11.27,1.34-15.72,4.01-4.46,2.68-7.91,6.43-10.36,11.26-2.45,4.83-3.68,10.44-3.68,16.85s1.23,11.96,3.68,16.79c2.45,4.83,5.9,8.58,10.36,11.26,4.45,2.68,9.69,4.02,15.72,4.02,3.59,0,6.92-.49,9.97-1.46,3.05-.97,5.76-2.37,8.11-4.18,2.36-1.82,4.32-3.99,5.9-6.51,1.57-2.53,2.64-5.38,3.2-8.56l-.11-.02h-14.26Z"/>
</svg>